<svg width="267" height="271" viewBox="0 0 267 271" fill="none" xmlns="http://www.w3.org/2000/svg">
<path d="M29.184 124V51.296H0.512V34.4H78.592V51.296H49.92V124H29.184ZM89.749 124V34.4H110.485V124H89.749ZM174.629 125.536C167.717 125.536 161.274 124.427 155.301 122.208C149.413 119.904 144.293 116.661 139.941 112.48C135.589 108.299 132.176 103.392 129.701 97.76C127.312 92.128 126.117 85.9413 126.117 79.2C126.117 72.4587 127.312 66.272 129.701 60.64C132.176 55.008 135.589 50.1013 139.941 45.92C144.378 41.7387 149.541 38.5387 155.429 36.32C161.317 34.016 167.76 32.864 174.757 32.864C182.522 32.864 189.52 34.2293 195.749 36.96C202.064 39.6053 207.354 43.5307 211.621 48.736L198.309 61.024C195.237 57.5253 191.824 54.9227 188.069 53.216C184.314 51.424 180.218 50.528 175.781 50.528C171.6 50.528 167.76 51.2107 164.261 52.576C160.762 53.9413 157.733 55.904 155.173 58.464C152.613 61.024 150.608 64.0533 149.157 67.552C147.792 71.0507 147.109 74.9333 147.109 79.2C147.109 83.4667 147.792 87.3493 149.157 90.848C150.608 94.3467 152.613 97.376 155.173 99.936C157.733 102.496 160.762 104.459 164.261 105.824C167.76 107.189 171.6 107.872 175.781 107.872C180.218 107.872 184.314 107.019 188.069 105.312C191.824 103.52 195.237 100.832 198.309 97.248L211.621 109.536C207.354 114.741 202.064 118.709 195.749 121.44C189.52 124.171 182.48 125.536 174.629 125.536Z" fill="white"/>
<path d="M40.064 240.536C32.896 240.536 26.0267 239.597 19.456 237.72C12.8853 235.757 7.59467 233.24 3.584 230.168L10.624 214.552C14.464 217.283 18.9867 219.544 24.192 221.336C29.4827 223.043 34.816 223.896 40.192 223.896C44.288 223.896 47.5733 223.512 50.048 222.744C52.608 221.891 54.4853 220.739 55.68 219.288C56.8747 217.837 57.472 216.173 57.472 214.296C57.472 211.907 56.5333 210.029 54.656 208.664C52.7787 207.213 50.304 206.061 47.232 205.208C44.16 204.269 40.7467 203.416 36.992 202.648C33.3227 201.795 29.6107 200.771 25.856 199.576C22.1867 198.381 18.816 196.845 15.744 194.968C12.672 193.091 10.1547 190.616 8.192 187.544C6.31467 184.472 5.376 180.547 5.376 175.768C5.376 170.648 6.74133 165.997 9.472 161.816C12.288 157.549 16.4693 154.179 22.016 151.704C27.648 149.144 34.688 147.864 43.136 147.864C48.768 147.864 54.3147 148.547 59.776 149.912C65.2373 151.192 70.0587 153.155 74.24 155.8L67.84 171.544C63.6587 169.155 59.4773 167.405 55.296 166.296C51.1147 165.101 47.0187 164.504 43.008 164.504C38.9973 164.504 35.712 164.973 33.152 165.912C30.592 166.851 28.7573 168.088 27.648 169.624C26.5387 171.075 25.984 172.781 25.984 174.744C25.984 177.048 26.9227 178.925 28.8 180.376C30.6773 181.741 33.152 182.851 36.224 183.704C39.296 184.557 42.6667 185.411 46.336 186.264C50.0907 187.117 53.8027 188.099 57.472 189.208C61.2267 190.317 64.64 191.811 67.712 193.688C70.784 195.565 73.2587 198.04 75.136 201.112C77.0987 204.184 78.08 208.067 78.08 212.76C78.08 217.795 76.672 222.403 73.856 226.584C71.04 230.765 66.816 234.136 61.184 236.696C55.6373 239.256 48.5973 240.536 40.064 240.536ZM135.769 240.536C128.686 240.536 122.116 239.384 116.057 237.08C110.084 234.776 104.878 231.533 100.441 227.352C96.089 223.171 92.6757 218.264 90.201 212.632C87.8117 207 86.617 200.856 86.617 194.2C86.617 187.544 87.8117 181.4 90.201 175.768C92.6757 170.136 96.1317 165.229 100.569 161.048C105.006 156.867 110.212 153.624 116.185 151.32C122.158 149.016 128.644 147.864 135.641 147.864C142.724 147.864 149.209 149.016 155.097 151.32C161.07 153.624 166.233 156.867 170.585 161.048C175.022 165.229 178.478 170.136 180.953 175.768C183.428 181.315 184.665 187.459 184.665 194.2C184.665 200.856 183.428 207.043 180.953 212.76C178.478 218.392 175.022 223.299 170.585 227.48C166.233 231.576 161.07 234.776 155.097 237.08C149.209 239.384 142.766 240.536 135.769 240.536ZM135.641 222.872C139.652 222.872 143.321 222.189 146.649 220.824C150.062 219.459 153.049 217.496 155.609 214.936C158.169 212.376 160.132 209.347 161.497 205.848C162.948 202.349 163.673 198.467 163.673 194.2C163.673 189.933 162.948 186.051 161.497 182.552C160.132 179.053 158.169 176.024 155.609 173.464C153.134 170.904 150.19 168.941 146.777 167.576C143.364 166.211 139.652 165.528 135.641 165.528C131.63 165.528 127.918 166.211 124.505 167.576C121.177 168.941 118.233 170.904 115.673 173.464C113.113 176.024 111.108 179.053 109.657 182.552C108.292 186.051 107.609 189.933 107.609 194.2C107.609 198.381 108.292 202.264 109.657 205.848C111.108 209.347 113.07 212.376 115.545 214.936C118.105 217.496 121.092 219.459 124.505 220.824C127.918 222.189 131.63 222.872 135.641 222.872ZM200.249 239V149.4H220.985V222.104H265.913V239H200.249Z" fill="white"/>
</svg>
